<svg width="224" height="200" viewBox="0 0 224 200" fill="none" xmlns="http://www.w3.org/2000/svg">
<path d="M159.538 20.2127C172.064 54.6051 175.834 91.8906 158.274 125.911C142.424 156.618 112.538 170.877 87.0937 140.962C75.0487 126.801 70.2334 101.959 82.7696 86.5921C96.736 69.472 116.363 90.7748 120.076 104.96C128.748 138.091 111.511 177.22 76.0864 189.597C34.135 204.254 25.9115 159.284 26.2117 159.331" stroke="black" stroke-width="6" stroke-miterlimit="1.5" stroke-linecap="round" stroke-linejoin="round"/>
<path d="M196.935 36.4712C192.888 36.5721 189.244 34.9894 185.527 33.5968C173.321 29.0252 161.637 20.1997 155.806 8.22203C157.746 22.5218 155.444 41.7409 143.652 51.274" stroke="black" stroke-width="6" stroke-miterlimit="1.5" stroke-linecap="round" stroke-linejoin="round"/>
</svg>
